<?xml version="1.0" encoding="UTF-8" standalone="no"?>
<svg
   xmlns:dc="http://purl.org/dc/elements/1.1/"
   xmlns:cc="http://creativecommons.org/ns#"
   xmlns:rdf="http://www.w3.org/1999/02/22-rdf-syntax-ns#"
   xmlns:svg="http://www.w3.org/2000/svg"
   xmlns="http://www.w3.org/2000/svg"
   xmlns:sodipodi="http://sodipodi.sourceforge.net/DTD/sodipodi-0.dtd"
   xmlns:inkscape="http://www.inkscape.org/namespaces/inkscape"
   version="1.1"
   width="173"
   height="173"
   viewBox="0 0 173 173"
   enable-background="new 0 0 76.00 76.00"
   xml:space="preserve"
   id="svg3095"
   inkscape:version="0.48.4 r9939"
   sodipodi:docname="Ikona.svg"><metadata
   id="metadata3103"><rdf:RDF><cc:Work
       rdf:about=""><dc:format>image/svg+xml</dc:format><dc:type
         rdf:resource="http://purl.org/dc/dcmitype/StillImage" /><dc:title /></cc:Work></rdf:RDF></metadata><defs
   id="defs3101" /><sodipodi:namedview
   pagecolor="#ffffff"
   bordercolor="#666666"
   borderopacity="1"
   objecttolerance="10"
   gridtolerance="10"
   guidetolerance="10"
   inkscape:pageopacity="0"
   inkscape:pageshadow="2"
   inkscape:window-width="1366"
   inkscape:window-height="715"
   id="namedview3099"
   showgrid="false"
   inkscape:zoom="2.4562657"
   inkscape:cx="24.760661"
   inkscape:cy="80.673884"
   inkscape:window-x="-8"
   inkscape:window-y="-8"
   inkscape:window-maximized="1"
   inkscape:current-layer="layer2" />
	<g
   inkscape:groupmode="layer"
   id="layer2"
   inkscape:label="tło"
   style="display:inline"><rect
     style="fill:#008000;fill-opacity:1;stroke:#e6e6e6;stroke-width:1.15606809"
     id="rect3121"
     width="212.69234"
     height="190.78419"
     x="-23.942167"
     y="-9.3126612" /></g>
<g
   inkscape:groupmode="layer"
   id="layer3"
   inkscape:label="ikona"
   style="display:inline"><path
     d="m 111.7374,92.108388 c 0,15.486982 -12.554635,28.041612 -28.041598,28.041612 -15.48697,0 -28.041607,-12.55463 -28.041607,-28.041612 0,-14.540697 11.06713,-26.496366 25.237498,-27.90329 l 0,-2.942604 -8.412499,0 0,-8.412499 22.433215,0 0,8.412499 -8.412501,0 0,2.942604 c 5.639918,0.560008 10.788188,2.791003 14.942722,6.190714 l 2.02324,-2.02325 -3.965725,-3.96574 5.948605,-5.948435 11.89706,11.897045 -5.94863,5.948435 -3.96557,-3.965564 -2.02325,2.023254 c 3.95583,4.83391 6.32904,11.013286 6.32904,17.746831 z m -48.887595,-2.804106 6.825106,0 0,5.608218 -6.825106,0 c 1.248769,9.37224 8.669657,16.79313 18.041712,18.04189 l 0,-6.82528 5.608391,0 0,6.8251 c 9.372234,-1.24858 16.793102,-8.66947 18.041702,-18.04171 l -6.825095,0 0,-5.608218 6.825095,0 C 103.29285,79.932044 95.871964,72.511158 86.499908,71.262565 l 0,6.824928 -5.608391,0 0,-6.825105 c -9.372055,1.24877 -16.792943,8.669656 -18.041712,18.041894 z m 20.845997,-2.804285 c 3.097393,0 5.608214,2.510992 5.608214,5.608391 0,3.097392 -2.510821,5.608407 -5.608214,5.608407 l -11.216785,8.412485 5.608391,-14.020892 c 0,-3.097399 2.510999,-5.608391 5.608394,-5.608391 z"
     id="path3097"
     inkscape:connector-curvature="0"
     style="fill:#ffffff;fill-opacity:1;stroke-width:0.2;stroke-linejoin:round" /></g></svg>